<svg class="animated" id="freepik_stories-mobile-apps" xmlns="http://www.w3.org/2000/svg" viewBox="0 0 500 500" version="1.1" xmlns:xlink="http://www.w3.org/1999/xlink" xmlns:svgjs="http://svgjs.com/svgjs"><style>svg#freepik_stories-mobile-apps:not(.animated) .animable {opacity: 0;}svg#freepik_stories-mobile-apps.animated #freepik--background-simple--inject-97 {animation: 1.5s Infinite  linear heartbeat;animation-delay: 0s;}svg#freepik_stories-mobile-apps.animated #freepik--Shadow--inject-97 {animation: 1.5s Infinite  linear shake;animation-delay: 0s;}svg#freepik_stories-mobile-apps.animated #freepik--Character--inject-97 {animation: 1s 1 forwards cubic-bezier(.36,-0.01,.5,1.38) slideLeft;animation-delay: 0s;}svg#freepik_stories-mobile-apps.animated #el6a2m0w60cr5 {animation: 1s 1 forwards cubic-bezier(.36,-0.01,.5,1.38) zoomIn;animation-delay: 0s;}svg#freepik_stories-mobile-apps.animated #elzfd68fk72b9 {animation: 1s 1 forwards cubic-bezier(.36,-0.01,.5,1.38) zoomIn;animation-delay: 0.03333333333333333s;opacity: 0}svg#freepik_stories-mobile-apps.animated #elzladq8driod {animation: 1s 1 forwards cubic-bezier(.36,-0.01,.5,1.38) zoomIn;animation-delay: 0.06666666666666667s;opacity: 0}svg#freepik_stories-mobile-apps.animated #elpa185wtykd {animation: 1s 1 forwards cubic-bezier(.36,-0.01,.5,1.38) zoomIn;animation-delay: 0.1s;opacity: 0}svg#freepik_stories-mobile-apps.animated #elngtdo8czn6g {animation: 1s 1 forwards cubic-bezier(.36,-0.01,.5,1.38) zoomIn;animation-delay: 0.13333333333333333s;opacity: 0}svg#freepik_stories-mobile-apps.animated #elfb6eyuq9n2o {animation: 1s 1 forwards cubic-bezier(.36,-0.01,.5,1.38) zoomIn;animation-delay: 0.16666666666666666s;opacity: 0}svg#freepik_stories-mobile-apps.animated #elddixdjsblc {animation: 1s 1 forwards cubic-bezier(.36,-0.01,.5,1.38) zoomIn;animation-delay: 0.2s;opacity: 0}svg#freepik_stories-mobile-apps.animated #elrggy9hyg4ag {animation: 1s 1 forwards cubic-bezier(.36,-0.01,.5,1.38) zoomIn;animation-delay: 0.23333333333333334s;opacity: 0}svg#freepik_stories-mobile-apps.animated #elex6rm5fl6y {animation: 1s 1 forwards cubic-bezier(.36,-0.01,.5,1.38) zoomIn;animation-delay: 0.26666666666666666s;opacity: 0}svg#freepik_stories-mobile-apps.animated #elv1iqlq8ttpg {animation: 1s 1 forwards cubic-bezier(.36,-0.01,.5,1.38) zoomIn;animation-delay: 0.3s;opacity: 0}svg#freepik_stories-mobile-apps.animated #elpwuyedmuwhg {animation: 1s 1 forwards cubic-bezier(.36,-0.01,.5,1.38) zoomIn;animation-delay: 0.3333333333333333s;opacity: 0}svg#freepik_stories-mobile-apps.animated #elrwsjgllmo2 {animation: 1s 1 forwards cubic-bezier(.36,-0.01,.5,1.38) zoomIn;animation-delay: 0.36666666666666664s;opacity: 0}svg#freepik_stories-mobile-apps.animated #elhtqgfy0k7jj {animation: 1s 1 forwards cubic-bezier(.36,-0.01,.5,1.38) zoomIn;animation-delay: 0.4s;opacity: 0}svg#freepik_stories-mobile-apps.animated #el1kfj87ao72r {animation: 1s 1 forwards cubic-bezier(.36,-0.01,.5,1.38) zoomIn;animation-delay: 0.43333333333333335s;opacity: 0}svg#freepik_stories-mobile-apps.animated #elo4chnsu9pmr {animation: 1s 1 forwards cubic-bezier(.36,-0.01,.5,1.38) zoomIn;animation-delay: 0.4666666666666667s;opacity: 0}svg#freepik_stories-mobile-apps.animated #elgpjknsqvyub {animation: 1s 1 forwards cubic-bezier(.36,-0.01,.5,1.38) zoomIn;animation-delay: 0.5s;opacity: 0}svg#freepik_stories-mobile-apps.animated #el7zktxvvvqtn {animation: 1s 1 forwards cubic-bezier(.36,-0.01,.5,1.38) zoomIn;animation-delay: 0.5333333333333333s;opacity: 0}svg#freepik_stories-mobile-apps.animated #elr4ezrmcacu {animation: 1s 1 forwards cubic-bezier(.36,-0.01,.5,1.38) zoomIn;animation-delay: 0.5666666666666667s;opacity: 0}svg#freepik_stories-mobile-apps.animated #elkv5m2jkk8cp {animation: 1s 1 forwards cubic-bezier(.36,-0.01,.5,1.38) zoomIn;animation-delay: 0.6s;opacity: 0}svg#freepik_stories-mobile-apps.animated #eldcxf70bo9xq {animation: 1s 1 forwards cubic-bezier(.36,-0.01,.5,1.38) zoomIn;animation-delay: 0.6333333333333333s;opacity: 0}svg#freepik_stories-mobile-apps.animated #elx8tdg7k6u5m {animation: 1s 1 forwards cubic-bezier(.36,-0.01,.5,1.38) zoomIn;animation-delay: 0.6666666666666666s;opacity: 0}svg#freepik_stories-mobile-apps.animated #elhskqev7f228 {animation: 1s 1 forwards cubic-bezier(.36,-0.01,.5,1.38) zoomIn;animation-delay: 0.7s;opacity: 0}svg#freepik_stories-mobile-apps.animated #elat1wuk8861t {animation: 1s 1 forwards cubic-bezier(.36,-0.01,.5,1.38) zoomIn;animation-delay: 0.7333333333333333s;opacity: 0}svg#freepik_stories-mobile-apps.animated #el3fhjjd2mq6h {animation: 1s 1 forwards cubic-bezier(.36,-0.01,.5,1.38) zoomIn;animation-delay: 0.7666666666666666s;opacity: 0}svg#freepik_stories-mobile-apps.animated #elua21o4ggnz8 {animation: 1s 1 forwards cubic-bezier(.36,-0.01,.5,1.38) zoomIn;animation-delay: 0.8s;opacity: 0}svg#freepik_stories-mobile-apps.animated #elg6wwlx70k3r {animation: 1s 1 forwards cubic-bezier(.36,-0.01,.5,1.38) zoomIn;animation-delay: 0.8333333333333334s;opacity: 0}svg#freepik_stories-mobile-apps.animated #elw7xryrn9a2p {animation: 1s 1 forwards cubic-bezier(.36,-0.01,.5,1.38) zoomIn;animation-delay: 0.8666666666666667s;opacity: 0}svg#freepik_stories-mobile-apps.animated #elv76xntsa9ko {animation: 1s 1 forwards cubic-bezier(.36,-0.01,.5,1.38) zoomIn;animation-delay: 0.9s;opacity: 0}svg#freepik_stories-mobile-apps.animated #eluhjrak6aqv {animation: 1s 1 forwards cubic-bezier(.36,-0.01,.5,1.38) zoomIn;animation-delay: 0.9333333333333333s;opacity: 0}svg#freepik_stories-mobile-apps.animated #elwpm44ynmon8 {animation: 1s 1 forwards cubic-bezier(.36,-0.01,.5,1.38) zoomIn;animation-delay: 0.9666666666666667s;opacity: 0}svg#freepik_stories-mobile-apps.animated #freepik--Smartphone--inject-97 {animation: 1s 1 forwards cubic-bezier(.36,-0.01,.5,1.38) zoomIn,1.5s Infinite  linear wind;animation-delay: 0s,1s;}            @keyframes heartbeat {                0% {                    transform: scale(1);                }                10% {                    transform: scale(1.1);                }                30% {                    transform: scale(1);                }                40% {                    transform: scale(1);                }                50% {                    transform: scale(1.1);                }                60% {                    transform: scale(1);                }                100% {                    transform: scale(1);                }            }                    @keyframes shake {                10%, 90% {                    transform: translate3d(-1px, 0, 0);                  }                  20%, 80% {                    transform: translate3d(2px, 0, 0);                  }                  30%, 50%, 70% {                    transform: translate3d(-4px, 0, 0);                  }                  40%, 60% {                    transform: translate3d(4px, 0, 0);                  }            }                    @keyframes slideLeft {                0% {                    opacity: 0;                    transform: translateX(-30px);                }                100% {                    opacity: 1;                    transform: translateX(0);                }            }                    @keyframes zoomIn {                0% {                    opacity: 0;                    transform: scale(0.5);                }                100% {                    opacity: 1;                    transform: scale(1);                }            }                    @keyframes wind {                0% {                    transform: rotate( 0deg );                }                25% {                    transform: rotate( 1deg );                }                75% {                    transform: rotate( -1deg );                }            }        </style><g id="freepik--background-simple--inject-97" class="animable" style="transform-origin: 218.776px 200.639px;"><path d="M216.7,260c-1.74-.15-3.48-.27-5.21-.38-42.6-2.68-90.29-11.93-122.45-43-31.52-30.46-20.61-69,5.78-99C140,66.27,281.37,50.49,306.18,126.26c8,24.5-17.78,54.29-7.62,83.4,11.57,33.14,89.41,40.62,64.24,96.9-13.95,31.21-34.9,22.11-55.95,3.44-12.07-10.71-23.3-22.77-36-32.65C255.46,265.35,235.79,261.53,216.7,260Z" style="fill: rgb(248, 172, 10); transform-origin: 218.776px 200.639px;" id="eligfypyiig4" class="animable"></path><g id="elp4ao9zqgzzi"><path d="M216.7,260c-1.74-.15-3.48-.27-5.21-.38-42.6-2.68-90.29-11.93-122.45-43-31.52-30.46-20.61-69,5.78-99C140,66.27,281.37,50.49,306.18,126.26c8,24.5-17.78,54.29-7.62,83.4,11.57,33.14,89.41,40.62,64.24,96.9-13.95,31.21-34.9,22.11-55.95,3.44-12.07-10.71-23.3-22.77-36-32.65C255.46,265.35,235.79,261.53,216.7,260Z" style="fill: rgb(255, 255, 255); opacity: 0.9; transform-origin: 218.776px 200.639px;" class="animable"></path></g></g><g id="freepik--Shadow--inject-97" class="animable" style="transform-origin: 250px 416.24px;"><ellipse id="freepik--path--inject-97" cx="250" cy="416.24" rx="193.89" ry="11.32" style="fill: rgb(245, 245, 245); transform-origin: 250px 416.24px;" class="animable"></ellipse></g><g id="freepik--Character--inject-97" class="animable" style="transform-origin: 322.985px 267.422px;"><path d="M308.2,123.37c2.86,5.16,3.1,26.23-2.2,30.55-9.74-1.07-17.49-5.78-17.74-16.87S302.81,113.67,308.2,123.37Z" style="fill: rgb(38, 50, 56); transform-origin: 299.231px 136.887px;" id="el31pedyue603" class="animable"></path><path d="M297.9,151c-2.56-1.5-6.82,3.44-7.8,11.91-.7,6-12.46-4.14-16.29,5.68-3.94-3-6.21-14.69,5-11.57,7.93,2.19,6.26.87,9.92-4C292.57,147.92,295.46,148.28,297.9,151Z" style="fill: rgb(38, 50, 56); transform-origin: 284.241px 158.817px;" id="eln5algasoez" class="animable"></path><path d="M331.63,176.61l.91,2.85c.32,1,.66,2,1,2.95.67,2,1.37,4,2.11,5.92s1.47,3.94,2.26,5.9l1.15,3,.29.74.07.17v0s0,0,0,0a1.35,1.35,0,0,0-.42-.25c-.22-.08-.31,0-.18,0a2.33,2.33,0,0,0,.71-.11,10.94,10.94,0,0,0,2.25-1,42.42,42.42,0,0,0,4.88-3.34c1.62-1.26,3.21-2.61,4.76-4s3.14-2.84,4.65-4.26l3.07,2.6c-1.28,1.84-2.64,3.52-4,5.23s-2.92,3.31-4.5,4.9a39.87,39.87,0,0,1-5.28,4.52,17.76,17.76,0,0,1-3.48,1.9,9.51,9.51,0,0,1-2.41.62,6.59,6.59,0,0,1-3.33-.45,6.91,6.91,0,0,1-3.2-3l-.26-.54-.36-.73c-.48-1-1-2-1.42-2.94-.91-2-1.82-4-2.64-6s-1.65-4.06-2.41-6.12c-.37-1-.72-2.09-1.07-3.14s-.66-2.08-1-3.31Z" style="fill: rgb(128, 62, 60); transform-origin: 341.46px 190.805px;" id="elvdkwfc3aljs" class="animable"></path><path d="M329.27,167.73c3.44.88,5.85,15.06,5.85,15.06l-9.49,6.46s-9.11-14.31-6.46-18.1C321.93,167.21,324.24,166.45,329.27,167.73Z" style="fill: rgb(248, 172, 10); transform-origin: 326.903px 178.204px;" id="eldlyw81n8v1d" class="animable"></path><path d="M329.27,167.73c3.44.88,5.85,15.06,5.85,15.06l-9.49,6.46s-9.11-14.31-6.46-18.1C321.93,167.21,324.24,166.45,329.27,167.73Z" style="fill: rgb(38, 50, 56); transform-origin: 326.903px 178.204px;" id="elyjqegi3wkmo" class="animable"></path><g id="elmibjidhh89"><polygon points="328.96 170.9 331.6 185.19 326.27 188.81 328.96 170.9" style="opacity: 0.3; transform-origin: 328.935px 179.855px;" class="animable"></polygon></g><path d="M355.91,185.52l3.17-7.64,3.91,7.64s-2.54,3.8-5.89,2.87Z" style="fill: rgb(127, 62, 59); transform-origin: 359.45px 183.208px;" id="elveuzpx2x6a" class="animable"></path><polygon points="362.57 177.09 367.6 179.11 362.99 185.52 359.08 177.88 362.57 177.09" style="fill: rgb(127, 62, 59); transform-origin: 363.34px 181.305px;" id="elmc9qlndzyy" class="animable"></polygon><g id="elrt32m8y8oq"><rect x="360.51" y="171.77" width="29.73" height="29.73" rx="7.75" style="fill: rgb(248, 172, 10); transform-origin: 375.375px 186.635px; transform: rotate(-38.93deg);" class="animable"></rect></g><polygon points="310.62 406.45 318.98 406.45 319.54 387.08 311.18 387.08 310.62 406.45" style="fill: rgb(127, 62, 59); transform-origin: 315.08px 396.765px;" id="el5o4entcvy7y" class="animable"></polygon><polygon points="254.5 381.5 262.19 384.78 272.25 368.02 264.56 364.74 254.5 381.5" style="fill: rgb(127, 62, 59); transform-origin: 263.375px 374.76px;" id="elsjannp3ddq" class="animable"></polygon><path d="M263.66,383.64l-8-4.92a.66.66,0,0,0-.87.14l-4.8,5.77a1.34,1.34,0,0,0,.36,2c2.82,1.67,4.27,2.33,7.79,4.49,2.16,1.34,5.19,3.5,8.18,5.34s5-1,3.89-2.05c-4.85-4.63-4.71-6.83-5.62-9.57A2.21,2.21,0,0,0,263.66,383.64Z" style="fill: rgb(38, 50, 56); transform-origin: 260.105px 387.84px;" id="elwd2zku7csce" class="animable"></path><path d="M319.27,405.48h-9.4a.66.66,0,0,0-.66.57l-1.07,7.44a1.33,1.33,0,0,0,1.34,1.48c3.27-.05,4.85-.25,9-.25,2.54,0,7.8.27,11.31.27s3.7-3.47,2.24-3.79c-6.56-1.41-9.14-3.35-11.34-5.2A2.17,2.17,0,0,0,319.27,405.48Z" style="fill: rgb(38, 50, 56); transform-origin: 320.51px 410.235px;" id="elz3v5nvc0srj" class="animable"></path><g id="elfgoxtmndqgh"><polygon points="319.54 387.09 319.25 397.07 310.89 397.07 311.17 387.09 319.54 387.09" style="opacity: 0.2; transform-origin: 315.215px 392.08px;" class="animable"></polygon></g><g id="eltgcf6uvdkx"><polygon points="264.55 364.75 272.25 368.02 267.06 376.66 259.36 373.38 264.55 364.75" style="opacity: 0.2; transform-origin: 265.805px 370.705px;" class="animable"></polygon></g><path d="M329.27,167.73s4,1.4-4,50.47h-34c.57-13.82.58-22.34-6-50.71a99.74,99.74,0,0,1,14.42-1.9,107.12,107.12,0,0,1,15.42,0C321.76,166.19,329.27,167.73,329.27,167.73Z" style="fill: rgb(38, 50, 56); transform-origin: 307.77px 191.756px;" id="eldv6n1n49pio" class="animable"></path><path d="M301.24,148.22c1,5,1.94,14.06-1.53,17.37,0,0,1.36,5,10.58,5,10.13,0,4.84-5,4.84-5-5.53-1.32-5.39-5.43-4.43-9.28Z" style="fill: rgb(127, 62, 59); transform-origin: 308.11px 159.405px;" id="el37ee7n2z4gv" class="animable"></path><g id="el4cdaupl00i6"><path d="M305.1,151.52l5.6,4.78a15.56,15.56,0,0,0-.47,2.74c-2.12-.31-5-2.63-5.25-4.84A7.47,7.47,0,0,1,305.1,151.52Z" style="opacity: 0.2; transform-origin: 307.806px 155.28px;" class="animable"></path></g><path d="M296.66,139.36c1.93,8.07,2.58,11.53,7.44,15,7.3,5.21,16.79,1.07,17.31-7.42.46-7.64-2.78-19.55-11.34-21.39A11.31,11.31,0,0,0,296.66,139.36Z" style="fill: rgb(127, 62, 59); transform-origin: 308.884px 140.971px;" id="ely8bhb85h8k" class="animable"></path><path d="M319.67,134.09A.38.38,0,0,0,320,134a.4.4,0,0,0,0-.56,4,4,0,0,0-3.39-1.26.41.41,0,0,0-.32.47.4.4,0,0,0,.47.31,3.15,3.15,0,0,1,2.67,1A.39.39,0,0,0,319.67,134.09Z" style="fill: rgb(38, 50, 56); transform-origin: 318.199px 133.126px;" id="el6cd5k3zu7z8" class="animable"></path><path d="M319.46,143.73a2.57,2.57,0,0,1-1.6-.6,7.79,7.79,0,0,1-2.32-5.32c-.31-3.6,1-6.65,3.09-6.95a2.43,2.43,0,0,1,1.91.58,7.79,7.79,0,0,1,2.32,5.32h0c.32,3.59-1,6.65-3.08,7A1.72,1.72,0,0,1,319.46,143.73Zm-.51-12.4-.25,0c-1.76.26-2.95,3.14-2.67,6.42a7.28,7.28,0,0,0,2.14,5,1.94,1.94,0,0,0,1.53.48c1.76-.26,3-3.14,2.67-6.42h0a7.28,7.28,0,0,0-2.14-5A2.08,2.08,0,0,0,319,131.33Z" style="fill: rgb(255, 255, 255); transform-origin: 319.201px 137.3px;" id="elobua4r5u5qn" class="animable"></path><path d="M325.27,218.2s6.6,64.42,6.05,89.92c-.57,26.52-10.29,87-10.29,87H309.72s1.79-58.95.79-85c-1.09-28.4-10.11-91.94-10.11-91.94Z" style="fill: rgb(248, 172, 10); transform-origin: 315.876px 306.65px;" id="elt0jcw3jwr9k" class="animable"></path><g id="eljsc9foxoxd"><path d="M325.27,218.2s6.6,64.42,6.05,89.92c-.57,26.52-10.29,87-10.29,87H309.72s1.79-58.95.79-85c-1.09-28.4-10.11-91.94-10.11-91.94Z" style="fill: rgb(255, 255, 255); opacity: 0.2; transform-origin: 315.876px 306.65px;" class="animable"></path></g><polygon points="308.74 395.54 322.01 395.54 322.98 391.31 308.12 390.79 308.74 395.54" style="fill: rgb(248, 172, 10); transform-origin: 315.55px 393.165px;" id="elpahm2r2ye7d" class="animable"></polygon><g id="elm680wuapnc"><path d="M310.62,234.23C319,251,312.3,281.62,309.35,293c-1.52-17.1-4.07-38-6.05-53.37C304.56,231,306.77,226.49,310.62,234.23Z" style="opacity: 0.2; transform-origin: 308.993px 261.627px;" class="animable"></path></g><path d="M316.3,218.2s-7.69,67-13.5,88.47c-6.9,25.53-33.13,69-33.13,69l-10.49-4.46s16.24-49.36,21.51-62.81c11.26-28.7,1.62-71.47,10.62-90.2Z" style="fill: rgb(248, 172, 10); transform-origin: 287.74px 296.935px;" id="eldtd8vjwtai" class="animable"></path><g id="el6ioo7kbwsh4"><path d="M316.3,218.2s-7.69,67-13.5,88.47c-6.9,25.53-33.13,69-33.13,69l-10.49-4.46s16.24-49.36,21.51-62.81c11.26-28.7,1.62-71.47,10.62-90.2Z" style="fill: rgb(255, 255, 255); opacity: 0.2; transform-origin: 287.74px 296.935px;" class="animable"></path></g><polygon points="257.74 371.24 270.76 376.78 273.88 373.28 258.87 366.07 257.74 371.24" style="fill: rgb(248, 172, 10); transform-origin: 265.81px 371.425px;" id="elgesvu4piqo" class="animable"></polygon><path d="M309.43,139.47c.12.66.57,1.14,1,1.06s.69-.68.58-1.34-.57-1.14-1-1.07S309.32,138.8,309.43,139.47Z" style="fill: rgb(38, 50, 56); transform-origin: 310.22px 139.326px;" id="el67yanffvec" class="animable"></path><path d="M316.94,138.15c.12.66.57,1.14,1,1.06s.69-.68.57-1.34-.56-1.14-1-1.07S316.83,137.48,316.94,138.15Z" style="fill: rgb(38, 50, 56); transform-origin: 317.726px 138.006px;" id="elpvuyaummrij" class="animable"></path><path d="M317.33,136.88l1.52-.75S318.25,137.52,317.33,136.88Z" style="fill: rgb(38, 50, 56); transform-origin: 318.09px 136.589px;" id="el3il6y5dj3am" class="animable"></path><path d="M315.16,139.64a18,18,0,0,0,3.11,3.82,2.91,2.91,0,0,1-2.29.86Z" style="fill: rgb(99, 15, 15); transform-origin: 316.715px 141.984px;" id="elmu389vudq1" class="animable"></path><path d="M313,147.45a6.49,6.49,0,0,0,1.13-.1.2.2,0,0,0,.16-.23A.19.19,0,0,0,314,147a5.34,5.34,0,0,1-4.65-1.31.2.2,0,1,0-.29.27A5.56,5.56,0,0,0,313,147.45Z" style="fill: rgb(38, 50, 56); transform-origin: 311.64px 146.528px;" id="elu7qinsz0qcd" class="animable"></path><path d="M308.89,127.46c.15,3.85-5.91,16.21-10.28,17.17-5.36-3.5-6.86-9.63-3.74-16.17S308.61,120.21,308.89,127.46Z" style="fill: rgb(38, 50, 56); transform-origin: 301.076px 133.685px;" id="el8wl3vasnedt" class="animable"></path><path d="M311.65,121.25c-3.39-.53-15,1.42-8.78,5s11.17,4.55,14.19,4.19S319.11,122.41,311.65,121.25Z" style="fill: rgb(38, 50, 56); transform-origin: 309.863px 125.837px;" id="el1fl7scn6wyz" class="animable"></path><path d="M295.64,145.27a6.06,6.06,0,0,0,3.28,3.27c2,.8,3.19-.91,2.84-2.89-.31-1.79-1.72-4.36-3.79-4.31A2.73,2.73,0,0,0,295.64,145.27Z" style="fill: rgb(127, 62, 59); transform-origin: 298.591px 145.04px;" id="el7uwi4nco6ap" class="animable"></path><path d="M306.75,137.19a.4.4,0,0,0,.24-.2,3.14,3.14,0,0,1,2.25-1.76.39.39,0,0,0,.35-.44.39.39,0,0,0-.44-.35,3.92,3.92,0,0,0-2.87,2.19.4.4,0,0,0,.18.54A.42.42,0,0,0,306.75,137.19Z" style="fill: rgb(38, 50, 56); transform-origin: 307.915px 135.822px;" id="elzpgl57hr67d" class="animable"></path><path d="M311,145a2.59,2.59,0,0,1-1.6-.61,7.79,7.79,0,0,1-2.32-5.32c-.31-3.59,1-6.65,3.08-6.95a2.53,2.53,0,0,1,1.92.58,7.81,7.81,0,0,1,2.32,5.32h0c.31,3.6-1,6.65-3.08,7Zm-.51-12.41-.25,0c-1.76.26-3,3.14-2.67,6.42a7.28,7.28,0,0,0,2.14,5,1.93,1.93,0,0,0,1.53.48c1.76-.25,2.95-3.13,2.67-6.42h0a7.3,7.3,0,0,0-2.14-5A2.08,2.08,0,0,0,310.47,132.58Z" style="fill: rgb(255, 255, 255); transform-origin: 310.74px 138.562px;" id="el0vxe11gjai9q" class="animable"></path><path d="M289.62,178.33a108.77,108.77,0,0,1-1.95,14.25,77.51,77.51,0,0,1-4,14l-.75,1.73-.19.43a4.41,4.41,0,0,1-.22.44,3.5,3.5,0,0,1-.32.52,5,5,0,0,1-1,1.12,4.68,4.68,0,0,1-1.65.84,5,5,0,0,1-2.92-.08,6.23,6.23,0,0,1-1.57-.75,12.22,12.22,0,0,1-1.88-1.54,37.44,37.44,0,0,1-4.68-6,102,102,0,0,1-6.79-12.53l3.49-2c2.72,3.67,5.45,7.42,8.33,10.85a36.93,36.93,0,0,0,4.33,4.57,4.42,4.42,0,0,0,.87.59c.08,0,.14,0,0,0a2.11,2.11,0,0,0-1.21,0c-1.48.44-1.65,1.75-1.34.74l.55-1.51a89.88,89.88,0,0,0,3.11-12.87c.76-4.39,1.34-9,1.76-13.33Z" style="fill: rgb(128, 62, 60); transform-origin: 275.66px 194.82px;" id="elpi1hdzko1ca" class="animable"></path><path d="M285.29,167.49c-3.4,1-7.49,12.75-7.49,12.75l13.2,9.44s4.81-9.78,3.38-14.18C292.89,170.92,289.17,166.31,285.29,167.49Z" style="fill: rgb(38, 50, 56); transform-origin: 286.223px 178.491px;" id="elx8i18f1rh2b" class="animable"></path><path d="M267.05,386.82a1.13,1.13,0,0,0,.7-.7.65.65,0,0,0,0-.68c-.6-.88-3.62-.81-4-.8a.2.2,0,0,0-.18.12.2.2,0,0,0,0,.21c.79.79,2.27,2.08,3.31,1.88ZM264.24,385c1.21,0,2.83.17,3.14.64a.27.27,0,0,1,0,.3.75.75,0,0,1-.54.49C266.29,386.57,265.33,386,264.24,385Z" style="fill: rgb(248, 172, 10); transform-origin: 265.693px 385.753px;" id="elwve953hld0j" class="animable"></path><path d="M265.13,384.79c.92-.29,1.89-.8,2.11-1.37a.7.7,0,0,0-.28-.82,1,1,0,0,0-.86-.21c-1.19.21-2.46,2.25-2.52,2.34a.23.23,0,0,0,0,.2.19.19,0,0,0,.17.1A4.86,4.86,0,0,0,265.13,384.79Zm.92-2,.12,0a.65.65,0,0,1,.54.13c.2.16.19.28.15.37-.2.55-1.72,1.21-2.73,1.34A5,5,0,0,1,266.05,382.81Z" style="fill: rgb(248, 172, 10); transform-origin: 265.418px 383.698px;" id="elswcro7bglet" class="animable"></path><path d="M322.41,406.94a3.19,3.19,0,0,0,2-.51,1.1,1.1,0,0,0,.35-1,.63.63,0,0,0-.33-.52c-1-.56-4.36,1.14-4.74,1.33a.21.21,0,0,0-.1.21.18.18,0,0,0,.16.16A13.51,13.51,0,0,0,322.41,406.94Zm1.49-1.73a.79.79,0,0,1,.37.07.27.27,0,0,1,.13.22.71.71,0,0,1-.23.63c-.51.46-1.88.54-3.73.23A10.73,10.73,0,0,1,323.9,405.21Z" style="fill: rgb(248, 172, 10); transform-origin: 322.181px 405.874px;" id="eldsi4t3tv34" class="animable"></path><path d="M319.82,406.65l.08,0c1-.45,3-2.25,2.81-3.2,0-.23-.19-.5-.74-.56a1.43,1.43,0,0,0-1.1.34c-1.05.88-1.24,3.13-1.25,3.22a.18.18,0,0,0,.08.18A.19.19,0,0,0,319.82,406.65Zm2-3.39h.12c.36,0,.38.19.39.23.09.57-1.25,2-2.26,2.61a4.57,4.57,0,0,1,1.06-2.58A1,1,0,0,1,321.81,403.26Z" style="fill: rgb(248, 172, 10); transform-origin: 321.17px 404.767px;" id="elgt6rsf5hpd8" class="animable"></path><path d="M290.8,216.21l-.87,3c-.12.23.16.47.55.47h35c.3,0,.56-.15.58-.34l.3-3c0-.21-.24-.39-.58-.39H291.35A.63.63,0,0,0,290.8,216.21Z" style="fill: rgb(38, 50, 56); transform-origin: 308.131px 217.814px;" id="elqk6xtr61l6" class="animable"></path><path d="M295.42,220.05h-.92c-.19,0-.33-.09-.31-.21l.43-4c0-.11.17-.21.36-.21h.92c.18,0,.32.1.31.21l-.43,4C295.76,220,295.6,220.05,295.42,220.05Z" style="fill: rgb(248, 172, 10); transform-origin: 295.199px 217.84px;" id="el08vxy64321kg" class="animable"></path><g id="elru4341dgm0k"><path d="M295.42,220.05h-.92c-.19,0-.33-.09-.31-.21l.43-4c0-.11.17-.21.36-.21h.92c.18,0,.32.1.31.21l-.43,4C295.76,220,295.6,220.05,295.42,220.05Z" style="fill: rgb(255, 255, 255); opacity: 0.2; transform-origin: 295.199px 217.84px;" class="animable"></path></g><path d="M322.85,220.05h-.92c-.18,0-.32-.09-.31-.21l.43-4c0-.11.17-.21.36-.21h.92c.18,0,.32.1.31.21l-.43,4C323.19,220,323,220.05,322.85,220.05Z" style="fill: rgb(248, 172, 10); transform-origin: 322.63px 217.84px;" id="elnbntfm2d8n" class="animable"></path><g id="elt3nbwvyetgn"><path d="M322.85,220.05h-.92c-.18,0-.32-.09-.31-.21l.43-4c0-.11.17-.21.36-.21h.92c.18,0,.32.1.31.21l-.43,4C323.19,220,323,220.05,322.85,220.05Z" style="fill: rgb(255, 255, 255); opacity: 0.2; transform-origin: 322.63px 217.84px;" class="animable"></path></g><path d="M309.13,220.05h-.92c-.18,0-.32-.09-.31-.21l.43-4c0-.11.18-.21.36-.21h.92c.19,0,.33.1.31.21l-.43,4C309.48,220,309.32,220.05,309.13,220.05Z" style="fill: rgb(248, 172, 10); transform-origin: 308.911px 217.84px;" id="elvgc7ww7shik" class="animable"></path><g id="elk4jmt8m02"><path d="M309.13,220.05h-.92c-.18,0-.32-.09-.31-.21l.43-4c0-.11.18-.21.36-.21h.92c.19,0,.33.1.31.21l-.43,4C309.48,220,309.32,220.05,309.13,220.05Z" style="fill: rgb(255, 255, 255); opacity: 0.2; transform-origin: 308.911px 217.84px;" class="animable"></path></g><path d="M309.82,138.19l1.52-.74S310.74,138.84,309.82,138.19Z" style="fill: rgb(38, 50, 56); transform-origin: 310.58px 137.907px;" id="el2t9t342s2st" class="animable"></path><path d="M262.14,191.88l-8-4.25,7.89-3.16s4.15,3.41,3.48,6.82Z" style="fill: rgb(127, 62, 59); transform-origin: 259.862px 188.175px;" id="elu74oy75v98" class="animable"></path><polygon points="251.32 181.2 258.07 178.91 263.05 185.41 254.17 187.63 251.32 181.2" style="fill: rgb(127, 62, 59); transform-origin: 257.185px 183.27px;" id="el6cmmkvoawjh" class="animable"></polygon></g><g id="freepik--Smartphone--inject-97" class="animable" style="transform-origin: 201.445px 274.38px;"><path d="M253.64,132.52H140a11.71,11.71,0,0,0-11.73,12l5.88,259.72a12.38,12.38,0,0,0,12.28,12H260.06a11.71,11.71,0,0,0,11.73-12l-5.88-259.72A12.37,12.37,0,0,0,253.64,132.52Z" style="fill: rgb(38, 50, 56); transform-origin: 200.03px 274.38px;" id="el6a2m0w60cr5" class="animable"></path><path d="M256.47,132.52H142.8a11.7,11.7,0,0,0-11.72,12L137,404.24a12.37,12.37,0,0,0,12.27,12H262.9a11.7,11.7,0,0,0,11.72-12l-5.88-259.72A12.37,12.37,0,0,0,256.47,132.52Z" style="fill: rgb(38, 50, 56); transform-origin: 202.85px 274.38px;" id="elzfd68fk72b9" class="animable"></path><path d="M138.51,404.09l-5.88-259.42a7.93,7.93,0,0,1,8-8.15H258.86a8.37,8.37,0,0,1,8.33,8.15l5.88,259.42a7.94,7.94,0,0,1-8,8.15H146.84A8.37,8.37,0,0,1,138.51,404.09Z" style="fill: rgb(255, 255, 255); transform-origin: 202.85px 274.38px;" id="elzladq8driod" class="animable"></path><path d="M178.12,401.65a1,1,0,0,1-.47-.12l-3.93-2.25h0a1,1,0,0,1-.49-.82.94.94,0,0,1,.48-.83l3.83-2.24a1,1,0,0,1,1.44.8l.1,4.48a1,1,0,0,1-1,1Zm-4.16-2.8,3.94,2.24a.45.45,0,0,0,.68-.4l-.1-4.49a.47.47,0,0,0-.69-.38L174,398.06a.46.46,0,0,0-.23.4.48.48,0,0,0,.23.39Z" style="fill: rgb(38, 50, 56); transform-origin: 176.155px 398.478px;" id="elpa185wtykd" class="animable"></path><path d="M205.58,401.93a3.56,3.56,0,0,1-3.54-3.46,3.38,3.38,0,0,1,3.4-3.48,3.57,3.57,0,0,1,3.54,3.47h0a3.37,3.37,0,0,1-3.4,3.47Zm-.14-6.44a2.9,2.9,0,0,0-2.08.87,2.86,2.86,0,0,0-.82,2.1,3.06,3.06,0,0,0,3,3,2.87,2.87,0,0,0,2.9-3h0A3.06,3.06,0,0,0,205.44,395.49Z" style="fill: rgb(38, 50, 56); transform-origin: 205.51px 398.46px;" id="elngtdo8czn6g" class="animable"></path><path d="M237.81,401.58h-4.57a.85.85,0,0,1-.85-.83l-.1-4.57a.78.78,0,0,1,.23-.59.8.8,0,0,1,.59-.25h4.57a.85.85,0,0,1,.85.83l.1,4.57a.8.8,0,0,1-.82.84Zm-4.7-5.74a.33.33,0,0,0-.23.1.28.28,0,0,0-.09.23l.1,4.57a.35.35,0,0,0,.35.34h4.57A.32.32,0,0,0,238,401a.34.34,0,0,0,.09-.24l-.1-4.57a.35.35,0,0,0-.35-.34Z" style="fill: rgb(38, 50, 56); transform-origin: 235.46px 398.46px;" id="elfb6eyuq9n2o" class="animable"></path><path d="M146.05,141.61h0a1,1,0,0,0-1,1h0a1,1,0,0,0,1,1h0a1,1,0,0,0,1-1h0A1,1,0,0,0,146.05,141.61Z" style="fill: rgb(38, 50, 56); transform-origin: 146.05px 142.61px;" id="elddixdjsblc" class="animable"></path><path d="M148.86,140.46h0a1,1,0,0,0-1,1l0,1.15a1,1,0,0,0,1,1h0a1,1,0,0,0,.95-1l0-1.15A1,1,0,0,0,148.86,140.46Z" style="fill: rgb(38, 50, 56); transform-origin: 148.835px 142.035px;" id="elrggy9hyg4ag" class="animable"></path><path d="M151.67,139.28h0a1,1,0,0,0-.95,1l.05,2.33a1,1,0,0,0,1,1h0a1,1,0,0,0,1-1l-.06-2.33A1,1,0,0,0,151.67,139.28Z" style="fill: rgb(38, 50, 56); transform-origin: 151.745px 141.445px;" id="elex6rm5fl6y" class="animable"></path><path d="M250.75,138.78h-6.83a1.6,1.6,0,0,0-1.6,1.64l0,1.5a1.69,1.69,0,0,0,1.68,1.64h6.83a1.6,1.6,0,0,0,1.6-1.64l0-1.5A1.7,1.7,0,0,0,250.75,138.78Z" style="fill: rgb(38, 50, 56); transform-origin: 247.375px 141.17px;" id="elv1iqlq8ttpg" class="animable"></path><path d="M253.49,139.82h-.37a.41.41,0,0,0-.42.43l0,1.84a.45.45,0,0,0,.44.43h.37a.42.42,0,0,0,.41-.43l0-1.84A.43.43,0,0,0,253.49,139.82Z" style="fill: rgb(38, 50, 56); transform-origin: 253.31px 141.17px;" id="elpwuyedmuwhg" class="animable"></path><path d="M229.47,143.56H170.3a6.93,6.93,0,0,1-6.94-5.14l-.72-3.42h74.11l-.56,3.42A6.56,6.56,0,0,1,229.47,143.56Z" style="fill: rgb(38, 50, 56); transform-origin: 199.695px 139.284px;" id="elrwsjgllmo2" class="animable"></path><g id="elhtqgfy0k7jj"><path d="M141.93,404.13h0a2.07,2.07,0,0,1-2.05-2L134.11,147a1.94,1.94,0,0,1,1.95-2h0a2.07,2.07,0,0,1,2.05,2l5.77,255.09A1.94,1.94,0,0,1,141.93,404.13Z" style="fill: rgb(38, 50, 56); opacity: 0.1; transform-origin: 138.996px 274.565px;" class="animable"></path></g><g id="el1kfj87ao72r"><path d="M269.65,404.13h0a2.07,2.07,0,0,1-2-2L261.83,147a1.94,1.94,0,0,1,1.95-2h0a2.07,2.07,0,0,1,2.05,2l5.77,255.09A1.94,1.94,0,0,1,269.65,404.13Z" style="fill: rgb(38, 50, 56); opacity: 0.1; transform-origin: 266.716px 274.565px;" class="animable"></path></g><path d="M172,211.4H157.73a8,8,0,0,1-7.92-7.75l-.32-14.23a7.55,7.55,0,0,1,7.57-7.75h14.23a8,8,0,0,1,7.93,7.75l.32,14.23A7.57,7.57,0,0,1,172,211.4Z" style="fill: rgb(248, 172, 10); transform-origin: 164.515px 196.535px;" id="elo4chnsu9pmr" class="animable"></path><path d="M245.11,211.4H230.88a8,8,0,0,1-7.92-7.75l-.32-14.23a7.55,7.55,0,0,1,7.57-7.75h14.23a8,8,0,0,1,7.92,7.75l.33,14.23A7.58,7.58,0,0,1,245.11,211.4Z" style="fill: rgb(248, 172, 10); transform-origin: 237.665px 196.535px;" id="elgpjknsqvyub" class="animable"></path><path d="M208.54,211.4H194.31a8,8,0,0,1-7.93-7.75l-.32-14.23a7.56,7.56,0,0,1,7.58-7.75h14.22a8,8,0,0,1,7.93,7.75l.32,14.23A7.56,7.56,0,0,1,208.54,211.4Z" style="fill: rgb(248, 172, 10); transform-origin: 201.085px 196.535px;" id="el7zktxvvvqtn" class="animable"></path><path d="M172.8,248.21H158.57a8,8,0,0,1-7.93-7.75l-.32-14.23a7.56,7.56,0,0,1,7.58-7.75h14.22a8,8,0,0,1,7.93,7.75l.32,14.23A7.56,7.56,0,0,1,172.8,248.21Z" style="fill: rgb(248, 172, 10); transform-origin: 165.345px 233.345px;" id="elr4ezrmcacu" class="animable"></path><path d="M209.37,248.21H195.14a8,8,0,0,1-7.92-7.75l-.32-14.23a7.56,7.56,0,0,1,7.57-7.75H208.7a8,8,0,0,1,7.92,7.75l.33,14.23A7.58,7.58,0,0,1,209.37,248.21Z" style="fill: rgb(248, 172, 10); transform-origin: 201.925px 233.345px;" id="elkv5m2jkk8cp" class="animable"></path><path d="M173.63,285H159.4a8,8,0,0,1-7.92-7.75l-.33-14.23a7.57,7.57,0,0,1,7.58-7.75H173a8,8,0,0,1,7.92,7.75l.33,14.23A7.58,7.58,0,0,1,173.63,285Z" style="fill: rgb(248, 172, 10); transform-origin: 166.2px 270.135px;" id="eldcxf70bo9xq" class="animable"></path><path d="M246.78,285H232.55a8,8,0,0,1-7.92-7.75l-.33-14.23a7.56,7.56,0,0,1,7.58-7.75h14.23a8,8,0,0,1,7.92,7.75l.32,14.23A7.56,7.56,0,0,1,246.78,285Z" style="fill: rgb(248, 172, 10); transform-origin: 239.325px 270.135px;" id="elx8tdg7k6u5m" class="animable"></path><path d="M210.21,285H196a8,8,0,0,1-7.93-7.75l-.32-14.23a7.55,7.55,0,0,1,7.57-7.75h14.23a8,8,0,0,1,7.93,7.75l.32,14.23A7.56,7.56,0,0,1,210.21,285Z" style="fill: rgb(248, 172, 10); transform-origin: 202.775px 270.135px;" id="elhskqev7f228" class="animable"></path><path d="M174.46,321.84H160.24a8,8,0,0,1-7.93-7.75L152,299.86a7.56,7.56,0,0,1,7.57-7.75h14.23a8,8,0,0,1,7.93,7.75l.32,14.23A7.56,7.56,0,0,1,174.46,321.84Z" style="fill: rgb(248, 172, 10); transform-origin: 167.025px 306.975px;" id="elat1wuk8861t" class="animable"></path><path d="M247.61,321.84H233.38a8,8,0,0,1-7.92-7.75l-.32-14.23a7.56,7.56,0,0,1,7.57-7.75h14.23a8,8,0,0,1,7.93,7.75l.32,14.23A7.57,7.57,0,0,1,247.61,321.84Z" style="fill: rgb(248, 172, 10); transform-origin: 240.165px 306.975px;" id="el3fhjjd2mq6h" class="animable"></path><path d="M211,321.84H196.81a8,8,0,0,1-7.92-7.75l-.33-14.23a7.58,7.58,0,0,1,7.58-7.75h14.23a8,8,0,0,1,7.92,7.75l.32,14.23A7.56,7.56,0,0,1,211,321.84Z" style="fill: rgb(248, 172, 10); transform-origin: 203.585px 306.975px;" id="elua21o4ggnz8" class="animable"></path><path d="M175.87,383.8H161.64a8,8,0,0,1-7.93-7.75l-.32-14.22a7.56,7.56,0,0,1,7.58-7.75h14.22a8,8,0,0,1,7.93,7.75l.32,14.22A7.55,7.55,0,0,1,175.87,383.8Z" style="fill: rgb(248, 172, 10); transform-origin: 168.415px 368.94px;" id="elg6wwlx70k3r" class="animable"></path><path d="M249,383.8H234.79a8,8,0,0,1-7.93-7.75l-.32-14.22a7.55,7.55,0,0,1,7.57-7.75h14.23a8,8,0,0,1,7.93,7.75l.32,14.22A7.55,7.55,0,0,1,249,383.8Z" style="fill: rgb(248, 172, 10); transform-origin: 241.565px 368.94px;" id="elw7xryrn9a2p" class="animable"></path><path d="M212.44,383.8H198.21a8,8,0,0,1-7.92-7.75L190,361.83a7.55,7.55,0,0,1,7.57-7.75h14.23a8,8,0,0,1,7.92,7.75l.33,14.22A7.56,7.56,0,0,1,212.44,383.8Z" style="fill: rgb(248, 172, 10); transform-origin: 205.025px 368.94px;" id="elv76xntsa9ko" class="animable"></path><polygon points="251.91 169.39 149.03 169.39 149.01 168.28 251.88 168.28 251.91 169.39" style="fill: rgb(248, 172, 10); transform-origin: 200.46px 168.835px;" id="eluhjrak6aqv" class="animable"></polygon><path d="M250.44,156.81a4.07,4.07,0,0,0-5.76,0,4,4,0,0,0-.49,4.92l-1.48,1.5a1,1,0,0,0,1.48,1.45l1.47-1.51a4,4,0,0,0,4.78-6.36Zm-5,5.13a3.15,3.15,0,1,1,4.51,0A3.19,3.19,0,0,1,245.42,161.94Z" style="fill: rgb(248, 172, 10); transform-origin: 247.066px 160.302px;" id="elwpm44ynmon8" class="animable"></path></g><defs>     <filter id="active" height="200%">         <feMorphology in="SourceAlpha" result="DILATED" operator="dilate" radius="2"></feMorphology>                <feFlood flood-color="#32DFEC" flood-opacity="1" result="PINK"></feFlood>        <feComposite in="PINK" in2="DILATED" operator="in" result="OUTLINE"></feComposite>        <feMerge>            <feMergeNode in="OUTLINE"></feMergeNode>            <feMergeNode in="SourceGraphic"></feMergeNode>        </feMerge>    </filter>    <filter id="hover" height="200%">        <feMorphology in="SourceAlpha" result="DILATED" operator="dilate" radius="2"></feMorphology>                <feFlood flood-color="#ff0000" flood-opacity="0.5" result="PINK"></feFlood>        <feComposite in="PINK" in2="DILATED" operator="in" result="OUTLINE"></feComposite>        <feMerge>            <feMergeNode in="OUTLINE"></feMergeNode>            <feMergeNode in="SourceGraphic"></feMergeNode>        </feMerge>            <feColorMatrix type="matrix" values="0   0   0   0   0                0   1   0   0   0                0   0   0   0   0                0   0   0   1   0 "></feColorMatrix>    </filter></defs></svg>